<svg width="20" height="20" viewBox="0 0 20 20" fill="none" xmlns="http://www.w3.org/2000/svg">
<mask id="mask0_126_174" style="mask-type:alpha" maskUnits="userSpaceOnUse" x="-1" y="0" width="21" height="20">
<rect x="19.5957" y="4.14111" width="16" height="16" transform="rotate(105 19.5957 4.14111)" fill="#D9D9D9"/>
</mask>
<g mask="url(#mask0_126_174)">
<path d="M7.36914 5.59304L9.0482 3.83435L9.54317 4.69167L8.88642 6.24116L10.7249 9.4255L14.8076 5.136L15.4675 6.2791L12.242 12.0061L14.0601 15.2022C14.1937 15.4336 14.2238 15.6861 14.1504 15.9597C14.0771 16.2334 13.9248 16.437 13.6934 16.5706C13.4621 16.7042 13.2096 16.7343 12.9359 16.661C12.6622 16.5876 12.4586 16.4353 12.325 16.2039L10.4866 13.0196L3.91409 12.9495L3.25413 11.8064L9.01026 10.4154L7.17178 7.23111L5.50152 7.02513L5.00654 6.16781L7.36914 5.59304Z" fill="#1C1B1F"/>
</g>
</svg>
